name analog
datacolumns 19
datarows 72
range 0.42250000000000015 0.4580000000000002
endheader
time	ground_force_vx	ground_force_vy	ground_force_vz	ground_force_px	ground_force_py	ground_force_pz	l_ground_force_vx	l_ground_force_vy	l_ground_force_vz	l_ground_force_px	l_ground_force_py	l_ground_force_pz	ground_torque_x	ground_torque_y	ground_torque_z	l_ground_torque_x	l_ground_torque_y	l_ground_torque_z
0.42250000000000015	-0.0	-0.0	-0.0	-10.510114669799805	8.776555061340332	-793.0213623046875	-0.0	-0.0	-0.0	-0.0	-0.0	-0.0	-0.0	-0.0	-0.0	-0.0	-0.0	-0.0
0.42300000000000015	-0.0	-0.0	-0.0	-10.875396728515623	8.216552734375	-794.1376342773438	-0.0	-0.0	-0.0	-0.0	-0.0	-0.0	-0.0	-0.0	-0.0	-0.0	-0.0	-0.0
0.42350000000000015	-0.0	-0.0	-0.0	-10.972892761230469	7.940823078155518	-792.7586669921875	-0.0	-0.0	-0.0	-0.0	-0.0	-0.0	-0.0	-0.0	-0.0	-0.0	-0.0	-0.0
0.42400000000000015	-0.0	-0.0	-0.0	-11.694725036621094	7.705502033233643	-789.83935546875	-0.0	-0.0	-0.0	-0.0	-0.0	-0.0	-0.0	-0.0	-0.0	-0.0	-0.0	-0.0
0.42450000000000015	-0.0	-0.0	-0.0	-12.667892456054688	6.814619064331055	-787.14208984375	-0.0	-0.0	-0.0	-0.0	-0.0	-0.0	-0.0	-0.0	-0.0	-0.0	-0.0	-0.0
0.42500000000000016	-0.0	-0.0	-0.0	-12.3270845413208	5.809495449066162	-787.5595703125	-0.0	-0.0	-0.0	-0.0	-0.0	-0.0	-0.0	-0.0	-0.0	-0.0	-0.0	-0.0
0.42550000000000016	-0.0	-0.0	-0.0	-12.261536598205566	5.137834072113037	-787.4341430664062	-0.0	-0.0	-0.0	-0.0	-0.0	-0.0	-0.0	-0.0	-0.0	-0.0	-0.0	-0.0
0.42600000000000016	-0.0	-0.0	-0.0	-12.683632850646973	4.2389445304870605	-785.9187622070312	-0.0	-0.0	-0.0	-0.0	-0.0	-0.0	-0.0	-0.0	-0.0	-0.0	-0.0	-0.0
0.42650000000000016	-0.0	-0.0	-0.0	-13.090518951416016	3.077244281768799	-783.8299560546875	-0.0	-0.0	-0.0	-0.0	-0.0	-0.0	-0.0	-0.0	-0.0	-0.0	-0.0	-0.0
0.42700000000000016	-0.0	-0.0	-0.0	-12.7648344039917	2.518824338912964	-783.9982299804688	-0.0	-0.0	-0.0	-0.0	-0.0	-0.0	-0.0	-0.0	-0.0	-0.0	-0.0	-0.0
0.42750000000000016	-0.0	-0.0	-0.0	-12.76477336883545	1.8285913467407229	-781.3251342773438	-0.0	-0.0	-0.0	-0.0	-0.0	-0.0	-0.0	-0.0	-0.0	-0.0	-0.0	-0.0
0.42800000000000016	-0.0	-0.0	-0.0	-12.073795318603516	1.477280855178833	-782.2935791015625	-0.0	-0.0	-0.0	-0.0	-0.0	-0.0	-0.0	-0.0	-0.0	-0.0	-0.0	-0.0
0.42850000000000016	-0.0	-0.0	-0.0	-11.724196434020996	0.9879515171051024	-782.438232421875	-0.0	-0.0	-0.0	-0.0	-0.0	-0.0	-0.0	-0.0	-0.0	-0.0	-0.0	-0.0
0.42900000000000016	-0.0	-0.0	-0.0	-11.017671585083008	0.8614781498908997	-782.2935791015625	-0.0	-0.0	-0.0	-0.0	-0.0	-0.0	-0.0	-0.0	-0.0	-0.0	-0.0	-0.0
0.42950000000000016	-0.0	-0.0	-0.0	-10.222280502319336	-0.0817513242363929	-782.0866088867188	-0.0	-0.0	-0.0	-0.0	-0.0	-0.0	-0.0	-0.0	-0.0	-0.0	-0.0	-0.0
0.43000000000000016	-0.0	-0.0	-0.0	-9.181365966796877	-0.7203527688980103	-785.0610961914062	-0.0	-0.0	-0.0	-0.0	-0.0	-0.0	-0.0	-0.0	-0.0	-0.0	-0.0	-0.0
0.43050000000000016	-0.0	-0.0	-0.0	-7.828757762908935	-0.8456686735153198	-786.379638671875	-0.0	-0.0	-0.0	-0.0	-0.0	-0.0	-0.0	-0.0	-0.0	-0.0	-0.0	-0.0
0.43100000000000016	-0.0	-0.0	-0.0	-7.614677906036377	-1.3799867630004885	-792.1541748046875	-0.0	-0.0	-0.0	-0.0	-0.0	-0.0	-0.0	-0.0	-0.0	-0.0	-0.0	-0.0
0.43150000000000016	-0.0	-0.0	-0.0	-6.733494281768799	-1.80394184589386	-793.8207397460938	-0.0	-0.0	-0.0	-0.0	-0.0	-0.0	-0.0	-0.0	-0.0	-0.0	-0.0	-0.0
0.43200000000000016	-0.0	-0.0	-0.0	-6.594536781311035	-1.9819722175598145	-799.1160888671875	-0.0	-0.0	-0.0	-0.0	-0.0	-0.0	-0.0	-0.0	-0.0	-0.0	-0.0	-0.0
0.43250000000000016	-0.0	-0.0	-0.0	-6.375766754150391	-2.1266016960144043	-803.456787109375	-0.0	-0.0	-0.0	-0.0	-0.0	-0.0	-0.0	-0.0	-0.0	-0.0	-0.0	-0.0
0.43300000000000016	-0.0	-0.0	-0.0	-6.512367248535156	-2.2627761363983154	-805.6307373046875	-0.0	-0.0	-0.0	-0.0	-0.0	-0.0	-0.0	-0.0	-0.0	-0.0	-0.0	-0.0
0.43350000000000016	-0.0	-0.0	-0.0	-6.814553737640381	-2.420172452926636	-809.5154418945312	-0.0	-0.0	-0.0	-0.0	-0.0	-0.0	-0.0	-0.0	-0.0	-0.0	-0.0	-0.0
0.43400000000000016	-0.0	-0.0	-0.0	-6.429919242858887	-1.9473556280136108	-810.114501953125	-0.0	-0.0	-0.0	-0.0	-0.0	-0.0	-0.0	-0.0	-0.0	-0.0	-0.0	-0.0
0.43450000000000016	-0.0	-0.0	-0.0	-6.875910758972168	-1.2612168788909912	-810.8480834960938	-0.0	-0.0	-0.0	-0.0	-0.0	-0.0	-0.0	-0.0	-0.0	-0.0	-0.0	-0.0
0.43500000000000016	-0.0	-0.0	-0.0	-7.384599685668945	-0.7461345195770264	-811.4239501953125	-0.0	-0.0	-0.0	-0.0	-0.0	-0.0	-0.0	-0.0	-0.0	-0.0	-0.0	-0.0
0.43550000000000016	-0.0	-0.0	-0.0	-7.1040239334106445	0.1481479853391647	-810.8491821289062	-0.0	-0.0	-0.0	-0.0	-0.0	-0.0	-0.0	-0.0	-0.0	-0.0	-0.0	-0.0
0.43600000000000017	-0.0	-0.0	-0.0	-6.627523899078369	1.267267823219299	-808.6793823242188	-0.0	-0.0	-0.0	-0.0	-0.0	-0.0	-0.0	-0.0	-0.0	-0.0	-0.0	-0.0
0.43650000000000017	-0.0	-0.0	-0.0	-7.907651901245117	1.9672797918319704	-805.4763793945312	-0.0	-0.0	-0.0	-0.0	-0.0	-0.0	-0.0	-0.0	-0.0	-0.0	-0.0	-0.0
0.43700000000000017	-0.0	-0.0	-0.0	-7.831456661224365	2.6612114906311035	-804.1151733398438	-0.0	-0.0	-0.0	-0.0	-0.0	-0.0	-0.0	-0.0	-0.0	-0.0	-0.0	-0.0
0.43750000000000017	-0.0	-0.0	-0.0	-8.035224914550781	2.9677042961120605	-802.146240234375	-0.0	-0.0	-0.0	-0.0	-0.0	-0.0	-0.0	-0.0	-0.0	-0.0	-0.0	-0.0
0.43800000000000017	-0.0	-0.0	-0.0	-8.533163070678711	2.234463691711426	-798.9176635742188	-0.0	-0.0	-0.0	-0.0	-0.0	-0.0	-0.0	-0.0	-0.0	-0.0	-0.0	-0.0
0.43850000000000017	-0.0	-0.0	-0.0	-8.296577453613281	2.2221174240112305	-798.1622924804688	-0.0	-0.0	-0.0	-0.0	-0.0	-0.0	-0.0	-0.0	-0.0	-0.0	-0.0	-0.0
0.43900000000000017	-0.0	-0.0	-0.0	-8.314789772033691	2.074259996414185	-795.71435546875	-0.0	-0.0	-0.0	-0.0	-0.0	-0.0	-0.0	-0.0	-0.0	-0.0	-0.0	-0.0
0.43950000000000017	-0.0	-0.0	-0.0	-7.74330997467041	1.336956024169922	-793.0076904296875	-0.0	-0.0	-0.0	-0.0	-0.0	-0.0	-0.0	-0.0	-0.0	-0.0	-0.0	-0.0
0.44000000000000017	-0.0	-0.0	-0.0	-7.338962554931641	0.7844142317771912	-792.0418701171875	-0.0	-0.0	-0.0	-0.0	-0.0	-0.0	-0.0	-0.0	-0.0	-0.0	-0.0	-0.0
0.44050000000000017	-0.0	-0.0	-0.0	-7.107524871826172	-0.5523560643196106	-789.0736694335938	-0.0	-0.0	-0.0	-0.0	-0.0	-0.0	-0.0	-0.0	-0.0	-0.0	-0.0	-0.0
0.44100000000000017	-0.0	-0.0	-0.0	-6.250537872314453	-1.6275352239608765	-789.3112182617188	-0.0	-0.0	-0.0	-0.0	-0.0	-0.0	-0.0	-0.0	-0.0	-0.0	-0.0	-0.0
0.44150000000000017	-0.0	-0.0	-0.0	-5.631711483001709	-2.6076600551605225	-788.297607421875	-0.0	-0.0	-0.0	-0.0	-0.0	-0.0	-0.0	-0.0	-0.0	-0.0	-0.0	-0.0
0.44200000000000017	-0.0	-0.0	-0.0	-5.191174983978272	-3.815656900405884	-787.9220581054688	-0.0	-0.0	-0.0	-0.0	-0.0	-0.0	-0.0	-0.0	-0.0	-0.0	-0.0	-0.0
0.44250000000000017	-0.0	-0.0	-0.0	-4.700186252593994	-4.545650482177734	-786.2671508789062	-0.0	-0.0	-0.0	-0.0	-0.0	-0.0	-0.0	-0.0	-0.0	-0.0	-0.0	-0.0
0.44300000000000017	-0.0	-0.0	-0.0	-3.2952721118927	-4.200152397155762	-785.7598266601562	-0.0	-0.0	-0.0	-0.0	-0.0	-0.0	-0.0	-0.0	-0.0	-0.0	-0.0	-0.0
0.44350000000000017	-0.0	-0.0	-0.0	-2.186683654785156	-4.216341495513916	-783.1806030273438	-0.0	-0.0	-0.0	-0.0	-0.0	-0.0	-0.0	-0.0	-0.0	-0.0	-0.0	-0.0
0.4440000000000002	-0.0	-0.0	-0.0	-0.6083607077598572	-3.937836170196533	-781.7703247070312	-0.0	-0.0	-0.0	-0.0	-0.0	-0.0	-0.0	-0.0	-0.0	-0.0	-0.0	-0.0
0.4445000000000002	-0.0	-0.0	-0.0	0.5671191215515137	-4.272954940795898	-777.3489990234375	-0.0	-0.0	-0.0	-0.0	-0.0	-0.0	-0.0	-0.0	-0.0	-0.0	-0.0	-0.0
0.4450000000000002	-0.0	-0.0	-0.0	2.7812716960906982	-4.891684532165527	-775.9985961914062	-0.0	-0.0	-0.0	-0.0	-0.0	-0.0	-0.0	-0.0	-0.0	-0.0	-0.0	-0.0
0.4455000000000002	-0.0	-0.0	-0.0	4.271762371063232	-5.321991443634033	-775.8748779296875	-0.0	-0.0	-0.0	-0.0	-0.0	-0.0	-0.0	-0.0	-0.0	-0.0	-0.0	-0.0
0.4460000000000002	-0.0	-0.0	-0.0	5.8037848472595215	-5.635604381561279	-775.2703857421875	-0.0	-0.0	-0.0	-0.0	-0.0	-0.0	-0.0	-0.0	-0.0	-0.0	-0.0	-0.0
0.4465000000000002	-0.0	-0.0	-0.0	6.805204391479492	-7.105249404907227	-777.0557250976562	-0.0	-0.0	-0.0	-0.0	-0.0	-0.0	-0.0	-0.0	-0.0	-0.0	-0.0	-0.0
0.4470000000000002	-0.0	-0.0	-0.0	7.746423244476318	-8.036613464355469	-781.253662109375	-0.0	-0.0	-0.0	-0.0	-0.0	-0.0	-0.0	-0.0	-0.0	-0.0	-0.0	-0.0
0.4475000000000002	-0.0	-0.0	-0.0	7.428944110870361	-9.284232139587402	-788.1619873046875	-0.0	-0.0	-0.0	-0.0	-0.0	-0.0	-0.0	-0.0	-0.0	-0.0	-0.0	-0.0
0.4480000000000002	-0.0	-0.0	-0.0	7.746860980987549	-10.705275535583496	-792.2779541015625	-0.0	-0.0	-0.0	-0.0	-0.0	-0.0	-0.0	-0.0	-0.0	-0.0	-0.0	-0.0
0.4485000000000002	-0.0	-0.0	-0.0	8.287064552307129	-11.53583812713623	-796.755126953125	-0.0	-0.0	-0.0	-0.0	-0.0	-0.0	-0.0	-0.0	-0.0	-0.0	-0.0	-0.0
0.4490000000000002	-0.0	-0.0	-0.0	8.465607643127441	-12.253087043762209	-799.6365356445312	-0.0	-0.0	-0.0	-0.0	-0.0	-0.0	-0.0	-0.0	-0.0	-0.0	-0.0	-0.0
0.4495000000000002	-0.0	-0.0	-0.0	8.685746192932129	-13.79675579071045	-803.8558349609375	-0.0	-0.0	-0.0	-0.0	-0.0	-0.0	-0.0	-0.0	-0.0	-0.0	-0.0	-0.0
0.4500000000000002	-0.0	-0.0	-0.0	9.090373992919922	-14.349994659423828	-808.1116943359375	-0.0	-0.0	-0.0	-0.0	-0.0	-0.0	-0.0	-0.0	-0.0	-0.0	-0.0	-0.0
0.4505000000000002	-0.0	-0.0	-0.0	9.081520080566406	-14.44809341430664	-809.752685546875	-0.0	-0.0	-0.0	-0.0	-0.0	-0.0	-0.0	-0.0	-0.0	-0.0	-0.0	-0.0
0.4510000000000002	-0.0	-0.0	-0.0	8.479409217834473	-14.45234489440918	-812.401123046875	-0.0	-0.0	-0.0	-0.0	-0.0	-0.0	-0.0	-0.0	-0.0	-0.0	-0.0	-0.0
0.4515000000000002	-0.0	-0.0	-0.0	8.033287048339844	-14.286890029907228	-814.1140747070312	-0.0	-0.0	-0.0	-0.0	-0.0	-0.0	-0.0	-0.0	-0.0	-0.0	-0.0	-0.0
0.4520000000000002	-0.0	-0.0	-0.0	7.243110656738281	-13.6326904296875	-814.4329833984375	-0.0	-0.0	-0.0	-0.0	-0.0	-0.0	-0.0	-0.0	-0.0	-0.0	-0.0	-0.0
0.4525000000000002	-0.0	-0.0	-0.0	7.1368408203125	-12.563187599182127	-815.7791137695312	-0.0	-0.0	-0.0	-0.0	-0.0	-0.0	-0.0	-0.0	-0.0	-0.0	-0.0	-0.0
0.4530000000000002	-0.0	-0.0	-0.0	6.614004135131836	-11.73210620880127	-813.7921752929688	-0.0	-0.0	-0.0	-0.0	-0.0	-0.0	-0.0	-0.0	-0.0	-0.0	-0.0	-0.0
0.4535000000000002	-0.0	-0.0	-0.0	6.492043972015381	-10.21750831604004	-813.6138916015625	-0.0	-0.0	-0.0	-0.0	-0.0	-0.0	-0.0	-0.0	-0.0	-0.0	-0.0	-0.0
0.4540000000000002	-0.0	-0.0	-0.0	5.421865940093994	-8.576476097106934	-812.5720825195312	-0.0	-0.0	-0.0	-0.0	-0.0	-0.0	-0.0	-0.0	-0.0	-0.0	-0.0	-0.0
0.4545000000000002	-0.0	-0.0	-0.0	4.371315002441406	-7.916886329650879	-810.7921142578125	-0.0	-0.0	-0.0	-0.0	-0.0	-0.0	-0.0	-0.0	-0.0	-0.0	-0.0	-0.0
0.4550000000000002	-0.0	-0.0	-0.0	3.909838914871216	-6.661665439605713	-805.3265991210938	-0.0	-0.0	-0.0	-0.0	-0.0	-0.0	-0.0	-0.0	-0.0	-0.0	-0.0	-0.0
0.4555000000000002	-0.0	-0.0	-0.0	4.270718574523926	-5.615215301513672	-803.514404296875	-0.0	-0.0	-0.0	-0.0	-0.0	-0.0	-0.0	-0.0	-0.0	-0.0	-0.0	-0.0
0.4560000000000002	-0.0	-0.0	-0.0	4.081374645233154	-5.340394496917725	-800.335205078125	-0.0	-0.0	-0.0	-0.0	-0.0	-0.0	-0.0	-0.0	-0.0	-0.0	-0.0	-0.0
0.4565000000000002	-0.0	-0.0	-0.0	3.8324034214019775	-4.463810443878174	-799.995849609375	-0.0	-0.0	-0.0	-0.0	-0.0	-0.0	-0.0	-0.0	-0.0	-0.0	-0.0	-0.0
0.4570000000000002	-0.0	-0.0	-0.0	3.914498805999756	-4.791533946990967	-798.625	-0.0	-0.0	-0.0	-0.0	-0.0	-0.0	-0.0	-0.0	-0.0	-0.0	-0.0	-0.0
0.4575000000000002	-0.0	-0.0	-0.0	3.832541465759277	-4.453012943267822	-799.855224609375	-0.0	-0.0	-0.0	-0.0	-0.0	-0.0	-0.0	-0.0	-0.0	-0.0	-0.0	-0.0
0.4580000000000002	-0.0	-0.0	-0.0	3.571861505508423	-4.991302490234375	-799.2734375	-0.0	-0.0	-0.0	-0.0	-0.0	-0.0	-0.0	-0.0	-0.0	-0.0	-0.0	-0.0
